<?xml version="1.0" encoding="utf-8"?>
<svg viewBox="0 0 256 256" fill="#FFF" xmlns="http://www.w3.org/2000/svg">
  <ellipse style="fill: #0080ff; opacity: 1;" cx="128" cy="128.013" rx="104.201" ry="104.201"/>
  <path d="M 128 72 C 150.06 72 168 88.15 168 108 C 168 125.38 154.24 139.93 136 143.28 L 136 144 C 136 146.858 134.475 149.499 132 150.928 C 126.667 154.007 120 150.158 120 144 L 120 136 C 120 131.582 123.582 128 128 128 C 141.23 128 152 119 152 108 C 152 97 141.23 88 128 88 C 114.77 88 104 97 104 108 L 104 112 C 104 114.858 102.475 117.499 100 118.928 C 94.667 122.007 88 118.158 88 112 L 88 108 C 88 88.15 105.94 72 128 72 Z M 140 180 C 140 173.373 134.627 168 128 168 C 125.894 168 123.824 168.554 122 169.608 C 114 174.226 114 185.774 122 190.392 C 130 195.011 140 189.238 140 180 Z"/>
</svg>